<svg xmlns="http://www.w3.org/2000/svg" viewBox="0 0 48 48" width="48" height="48" role="img" aria-labelledby="icoon-zakelijk-t">
  <title id="icoon-zakelijk-t">Zakelijke verhuizingen</title>
  <!-- De Reus iconenset v1 · raster 48 · koningsblauw hoofdvorm, goudgeel accent (de spullen) · 2 px tussenruimte -->
  <defs>
    <mask id="icoon-zakelijk-m" maskUnits="userSpaceOnUse" x="0" y="0" width="48" height="48">
      <rect width="48" height="48" fill="#fff"/>
      <g fill="#000">
        <rect x="8" y="8" width="4" height="4" rx=".5"/><rect x="14" y="8" width="4" height="4" rx=".5"/><rect x="20" y="8" width="4" height="4" rx=".5"/>
        <rect x="8" y="15" width="4" height="4" rx=".5"/><rect x="14" y="15" width="4" height="4" rx=".5"/><rect x="20" y="15" width="4" height="4" rx=".5"/>
        <rect x="8" y="22" width="4" height="4" rx=".5"/><rect x="14" y="22" width="4" height="4" rx=".5"/>
        <rect x="8" y="29" width="4" height="4" rx=".5"/><rect x="14" y="29" width="4" height="4" rx=".5"/>
        <rect x="12" y="36" width="7" height="9" rx="1"/>
        <rect x="24" y="24" width="22" height="22" rx="3.5"/>
      </g>
    </mask>
  </defs>
  <rect x="4" y="4" width="24" height="40" mask="url(#icoon-zakelijk-m)" style="fill:var(--icoon-hoofd,#1746A2)"/>
  <rect x="26" y="26" width="18" height="18" rx="1.5" style="fill:var(--icoon-accent,#FFCC33)"/>
  <path d="M33 26h4v6h-4z" style="fill:var(--icoon-hoofd,#1746A2)"/>
</svg>
