<svg xmlns="http://www.w3.org/2000/svg" viewBox="0 0 1000.00 827.99" width="1000" height="828" role="img" aria-labelledby="title">
  <title id="title">Verhuisbedrijf De Reus</title>
  <g id="beeldmerk">
    <path id="arm-links" fill="#FFFFFF" d="M302.29 507.67C290.58 507.10 275.31 493.39 263.63 472.94C258.21 463.45 255.57 462.58 242.97 466.13C196.40 479.22 145.57 472.35 99.68 446.77C92.19 442.59 83.06 436.98 69.03 427.89C56.78 419.95 54.51 418.70 42.87 413.36C20.73 403.19 10.22 395.02 4.15 383.23C-0.85 373.53 -1.08 366.85 3.07 350.56C5.86 339.58 6.14 337.54 6.91 322.21C8.00 300.27 9.86 288.65 14.79 272.98C24.69 241.50 39.49 218.59 84.36 165.23C102.17 144.04 103.55 142.18 110.47 129.91C115.56 120.92 117.64 118.09 123.79 111.79C128.30 107.18 130.46 104.74 133.77 100.49C139.63 92.95 141.74 90.89 148.07 86.46C152.29 83.52 155.29 80.97 157.89 78.18C159.92 75.99 160.58 75.03 167.43 64.40C176.73 49.95 182.34 44.55 191.98 40.75C193.12 40.29 194.81 39.51 195.73 39.01C197.22 38.20 197.63 38.09 199.46 38.09C200.60 38.09 202.47 37.86 203.66 37.56C204.83 37.28 206.15 37.03 206.58 37.03C207.03 37.02 208.41 36.84 209.65 36.62C214.70 35.71 223.49 37.68 229.23 41.01C243.29 49.17 251.58 55.09 258.42 61.82C265.05 68.36 261.26 83.03 249.92 94.70C244.44 100.34 240.65 101.93 233.19 101.75C225.27 101.56 224.37 99.16 227.92 87.62C229.38 82.86 229.96 82.30 232.77 83.02C237.23 84.18 240.75 80.49 238.74 76.75C237.92 75.20 237.77 75.13 229.37 72.06C225.24 70.55 222.52 71.74 220.30 76.01C219.15 78.23 217.87 80.18 216.18 82.29C214.50 84.38 214.33 86.68 215.63 89.77C216.44 91.65 216.53 93.70 215.90 95.93C215.68 96.74 215.14 99.80 214.71 102.73C213.61 110.12 213.61 110.12 212.11 115.79C207.05 134.83 199.12 145.19 187.60 147.76C186.75 147.95 185.28 148.29 184.32 148.52C162.21 153.80 144.81 143.84 140.71 123.57C139.35 116.78 138.54 116.45 137.38 122.24C134.18 138.15 149.71 155.35 168.86 157.10C173.83 157.55 174.28 158.73 171.18 163.13C170.11 164.65 167.72 168.01 165.89 170.59C148.25 195.43 141.48 219.73 143.42 251.18C144.28 265.06 143.78 287.94 142.57 290.74C142.35 291.24 141.99 293.22 141.77 295.14C140.82 303.50 138.31 313.56 135.46 320.48C132.97 326.48 132.62 327.21 129.74 332.20C124.54 341.23 117.97 348.97 109.35 356.24C103.41 361.26 103.64 361.04 103.98 361.38C104.64 362.06 110.91 359.26 115.36 356.30C127.62 348.10 137.66 335.68 143.53 321.39C144.79 318.33 148.12 308.48 149.42 303.95C149.99 302.01 150.18 301.68 151.68 300.21C152.59 299.33 153.52 298.22 153.77 297.75C154.02 297.27 154.32 296.89 154.45 296.89C154.58 296.89 156.17 295.90 157.98 294.71C185.34 276.62 214.81 277.24 241.22 296.46C243.55 298.17 245.54 299.55 245.66 299.55C245.76 299.55 245.98 299.92 246.15 300.38C246.30 300.84 247.55 302.25 249.01 303.64C254.38 308.73 259.86 316.01 264.97 324.87C266.87 328.16 267.65 328.59 267.43 326.26C267.09 322.48 263.51 313.85 258.93 305.74C255.78 300.17 256.23 299.36 265.99 293.02C279.19 284.45 301.75 279.32 306.28 283.84C306.66 284.22 306.67 507.31 306.29 507.62C306.14 507.75 304.34 507.77 302.29 507.67ZM220.57 396.80C227.29 395.95 229.01 395.67 232.30 394.83C241.45 392.52 249.23 389.07 257.23 383.76C265.33 378.38 265.81 376.52 258.31 379.50C241.26 386.27 221.06 389.77 208.91 388.04C207.92 387.91 205.92 387.66 204.45 387.49C191.82 386.00 177.02 379.68 164.20 370.30C157.90 365.69 157.03 365.92 160.97 371.16C170.64 384.00 188.94 394.26 205.78 396.27C207.11 396.43 209.02 396.66 210.05 396.78C212.81 397.12 217.97 397.13 220.57 396.80ZM217.91 160.49C209.53 159.97 199.19 157.48 197.19 155.48C195.97 154.26 196.23 153.91 199.45 152.40C205.52 149.56 208.64 146.49 214.05 137.93C216.63 133.88 219.49 126.55 221.55 118.73C223.99 109.47 224.74 108.86 231.38 110.62C236.12 111.87 244.69 110.27 250.87 106.97C256.39 104.03 258.33 105.32 259.77 112.85C260.34 115.81 262.13 122.36 262.57 123.01C264.76 126.37 268.07 115.96 266.68 110.06C265.13 103.49 265.43 102.98 272.72 99.80C274.77 98.90 276.73 97.54 279.32 95.19C281.65 93.08 284.00 91.97 287.35 91.36C289.60 90.97 290.64 90.58 294.21 88.85C303.66 84.24 312.61 90.03 314.42 101.93C315.83 111.20 312.16 116.55 301.14 121.26C293.51 124.52 289.59 126.69 280.16 132.85C274.19 136.77 270.78 138.90 268.18 140.37C267.00 141.04 262.56 143.75 258.31 146.40C245.60 154.34 236.85 158.31 229.51 159.49C226.24 160.01 219.54 160.59 217.91 160.49ZM265.45 91.95C263.99 91.32 263.98 89.97 265.40 86.65C268.73 78.84 270.71 71.81 270.30 69.18C269.34 62.98 266.49 59.17 258.00 52.74C255.97 51.21 252.63 48.65 250.58 47.05C245.32 42.94 242.32 40.76 240.31 39.57C239.36 39.00 237.13 37.62 235.37 36.49C224.96 29.80 214.36 27.32 204.68 29.31C192.19 31.88 205.99 21.66 220.37 17.70C222.32 17.16 224.22 16.56 224.61 16.36C225.19 16.06 225.52 16.07 226.74 16.39C227.53 16.60 228.83 16.77 229.63 16.78C230.44 16.78 232.05 16.89 233.23 17.04C234.41 17.19 236.64 17.43 238.18 17.59C245.29 18.32 248.33 19.68 255.37 25.27C256.25 25.96 259.43 28.20 262.44 30.23C265.44 32.27 268.80 34.68 269.89 35.60C271.00 36.53 273.93 38.85 276.43 40.75C285.24 47.49 287.45 49.94 289.23 54.94C290.86 59.53 290.13 62.36 285.10 71.15C284.22 72.69 283.05 74.77 282.50 75.77C281.39 77.79 278.04 82.54 275.16 86.15C271.77 90.42 267.64 92.88 265.45 91.95ZM289.89 80.86C289.24 80.09 289.60 78.93 291.52 75.51C301.80 57.21 297.93 46.72 275.80 32.89C273.37 31.37 268.75 27.97 266.43 25.99C261.58 21.84 251.78 14.70 249.23 13.44C246.94 12.31 237.88 10.16 233.01 9.58C226.94 8.86 229.17 6.35 238.66 3.20C246.57 0.58 251.52 0.36 254.70 2.50C255.22 2.85 255.93 3.22 256.30 3.32C261.43 4.79 269.19 8.95 273.01 12.30C280.90 19.19 283.75 21.47 299.22 33.11C306.66 38.71 308.75 40.70 310.22 43.56C313.00 48.97 312.09 58.83 308.28 64.73C307.70 65.63 307.16 66.65 307.06 67.01C306.88 67.75 304.35 70.83 301.36 73.94C300.23 75.12 299.10 76.40 298.85 76.79C298.59 77.20 297.90 77.67 297.27 77.88C296.66 78.09 295.16 78.95 293.95 79.77C291.65 81.33 290.53 81.64 289.89 80.86ZM317.98 63.03C317.90 62.81 318.09 61.47 318.38 60.03C321.26 46.34 318.09 40.07 302.75 29.02C301.44 28.08 298.75 26.10 296.79 24.62C294.83 23.14 291.83 20.91 290.13 19.65C285.86 16.49 282.57 13.72 278.96 10.26C276.00 7.41 270.77 3.61 267.77 2.12C266.46 1.48 265.63 0.83 265.63 0.48C265.63 -0.30 278.04 0.29 278.56 1.10C278.92 1.64 281.02 3.12 284.70 5.42C287.77 7.35 292.15 10.20 294.42 11.75C301.48 16.56 303.22 17.72 307.62 20.52C325.85 32.16 330.33 39.72 326.19 51.86C324.10 57.99 318.82 65.19 317.98 63.03Z"/>
    <path id="arm-rechts" fill="#FFFFFF" d="M697.71 507.67C709.42 507.10 724.69 493.39 736.37 472.94C741.79 463.45 744.43 462.58 757.03 466.13C803.60 479.22 854.43 472.35 900.32 446.77C907.81 442.59 916.94 436.98 930.97 427.89C943.22 419.95 945.49 418.70 957.13 413.36C979.27 403.19 989.78 395.02 995.85 383.23C1000.85 373.53 1001.08 366.85 996.93 350.56C994.14 339.58 993.86 337.54 993.09 322.21C992.00 300.27 990.14 288.65 985.21 272.98C975.31 241.50 960.51 218.59 915.64 165.23C897.83 144.04 896.45 142.18 889.53 129.91C884.44 120.92 882.36 118.09 876.21 111.79C871.70 107.18 869.54 104.74 866.23 100.49C860.37 92.95 858.26 90.89 851.93 86.46C847.71 83.52 844.71 80.97 842.11 78.18C840.08 75.99 839.42 75.03 832.57 64.40C823.27 49.95 817.66 44.55 808.02 40.75C806.88 40.29 805.19 39.51 804.27 39.01C802.78 38.20 802.37 38.09 800.54 38.09C799.40 38.09 797.53 37.86 796.34 37.56C795.17 37.28 793.85 37.03 793.42 37.03C792.97 37.02 791.59 36.84 790.35 36.62C785.30 35.71 776.51 37.68 770.77 41.01C756.71 49.17 748.42 55.09 741.58 61.82C734.95 68.36 738.74 83.03 750.08 94.70C755.56 100.34 759.35 101.93 766.81 101.75C774.73 101.56 775.63 99.16 772.08 87.62C770.62 82.86 770.04 82.30 767.23 83.02C762.77 84.18 759.25 80.49 761.26 76.75C762.08 75.20 762.23 75.13 770.63 72.06C774.76 70.55 777.48 71.74 779.70 76.01C780.85 78.23 782.13 80.18 783.82 82.29C785.50 84.38 785.67 86.68 784.37 89.77C783.56 91.65 783.47 93.70 784.10 95.93C784.32 96.74 784.86 99.80 785.29 102.73C786.39 110.12 786.39 110.12 787.89 115.79C792.95 134.83 800.88 145.19 812.40 147.76C813.25 147.95 814.72 148.29 815.68 148.52C837.79 153.80 855.19 143.84 859.29 123.57C860.65 116.78 861.46 116.45 862.62 122.24C865.82 138.15 850.29 155.35 831.14 157.10C826.17 157.55 825.72 158.73 828.82 163.13C829.89 164.65 832.28 168.01 834.11 170.59C851.75 195.43 858.52 219.73 856.58 251.18C855.72 265.06 856.22 287.94 857.43 290.74C857.65 291.24 858.01 293.22 858.23 295.14C859.18 303.50 861.69 313.56 864.54 320.48C867.03 326.48 867.38 327.21 870.26 332.20C875.46 341.23 882.03 348.97 890.65 356.24C896.59 361.26 896.36 361.04 896.02 361.38C895.36 362.06 889.09 359.26 884.64 356.30C872.38 348.10 862.34 335.68 856.47 321.39C855.21 318.33 851.88 308.48 850.58 303.95C850.01 302.01 849.82 301.68 848.32 300.21C847.41 299.33 846.48 298.22 846.23 297.75C845.98 297.27 845.68 296.89 845.55 296.89C845.42 296.89 843.83 295.90 842.02 294.71C814.66 276.62 785.19 277.24 758.78 296.46C756.45 298.17 754.46 299.55 754.34 299.55C754.24 299.55 754.02 299.92 753.85 300.38C753.70 300.84 752.45 302.25 750.99 303.64C745.62 308.73 740.14 316.01 735.03 324.87C733.13 328.16 732.35 328.59 732.57 326.26C732.91 322.48 736.49 313.85 741.07 305.74C744.22 300.17 743.77 299.36 734.01 293.02C720.81 284.45 698.25 279.32 693.72 283.84C693.34 284.22 693.33 507.31 693.71 507.62C693.86 507.75 695.66 507.77 697.71 507.67ZM779.43 396.80C772.71 395.95 770.99 395.67 767.70 394.83C758.55 392.52 750.77 389.07 742.77 383.76C734.67 378.38 734.19 376.52 741.69 379.50C758.74 386.27 778.94 389.77 791.09 388.04C792.08 387.91 794.08 387.66 795.55 387.49C808.18 386.00 822.98 379.68 835.80 370.30C842.10 365.69 842.97 365.92 839.03 371.16C829.36 384.00 811.06 394.26 794.22 396.27C792.89 396.43 790.98 396.66 789.95 396.78C787.19 397.12 782.03 397.13 779.43 396.80ZM782.09 160.49C790.47 159.97 800.81 157.48 802.81 155.48C804.03 154.26 803.77 153.91 800.55 152.40C794.48 149.56 791.36 146.49 785.95 137.93C783.37 133.88 780.51 126.55 778.45 118.73C776.01 109.47 775.26 108.86 768.62 110.62C763.88 111.87 755.31 110.27 749.13 106.97C743.61 104.03 741.67 105.32 740.23 112.85C739.66 115.81 737.87 122.36 737.43 123.01C735.24 126.37 731.93 115.96 733.32 110.06C734.87 103.49 734.57 102.98 727.28 99.80C725.23 98.90 723.27 97.54 720.68 95.19C718.35 93.08 716.00 91.97 712.65 91.36C710.40 90.97 709.36 90.58 705.79 88.85C696.34 84.24 687.39 90.03 685.58 101.93C684.17 111.20 687.84 116.55 698.86 121.26C706.49 124.52 710.41 126.69 719.84 132.85C725.81 136.77 729.22 138.90 731.82 140.37C733.00 141.04 737.44 143.75 741.69 146.40C754.40 154.34 763.15 158.31 770.49 159.49C773.76 160.01 780.46 160.59 782.09 160.49ZM734.55 91.95C736.01 91.32 736.02 89.97 734.60 86.65C731.27 78.84 729.29 71.81 729.70 69.18C730.66 62.98 733.51 59.17 742.00 52.74C744.03 51.21 747.37 48.65 749.42 47.05C754.68 42.94 757.68 40.76 759.69 39.57C760.64 39.00 762.87 37.62 764.63 36.49C775.04 29.80 785.64 27.32 795.32 29.31C807.81 31.88 794.01 21.66 779.63 17.70C777.68 17.16 775.78 16.56 775.39 16.36C774.81 16.06 774.48 16.07 773.26 16.39C772.47 16.60 771.17 16.77 770.37 16.78C769.56 16.78 767.95 16.89 766.77 17.04C765.59 17.19 763.36 17.43 761.82 17.59C754.71 18.32 751.67 19.68 744.63 25.27C743.75 25.96 740.57 28.20 737.56 30.23C734.56 32.27 731.20 34.68 730.11 35.60C729.00 36.53 726.07 38.85 723.57 40.75C714.76 47.49 712.55 49.94 710.77 54.94C709.14 59.53 709.87 62.36 714.90 71.15C715.78 72.69 716.95 74.77 717.50 75.77C718.61 77.79 721.96 82.54 724.84 86.15C728.23 90.42 732.36 92.88 734.55 91.95ZM710.11 80.86C710.76 80.09 710.40 78.93 708.48 75.51C698.20 57.21 702.07 46.72 724.20 32.89C726.63 31.37 731.25 27.97 733.57 25.99C738.42 21.84 748.22 14.70 750.77 13.44C753.06 12.31 762.12 10.16 766.99 9.58C773.06 8.86 770.83 6.35 761.34 3.20C753.43 0.58 748.48 0.36 745.30 2.50C744.78 2.85 744.07 3.22 743.70 3.32C738.57 4.79 730.81 8.95 726.99 12.30C719.10 19.19 716.25 21.47 700.78 33.11C693.34 38.71 691.25 40.70 689.78 43.56C687.00 48.97 687.91 58.83 691.72 64.73C692.30 65.63 692.84 66.65 692.94 67.01C693.12 67.75 695.65 70.83 698.64 73.94C699.77 75.12 700.90 76.40 701.15 76.79C701.41 77.20 702.10 77.67 702.73 77.88C703.34 78.09 704.84 78.95 706.05 79.77C708.35 81.33 709.47 81.64 710.11 80.86ZM682.02 63.03C682.10 62.81 681.91 61.47 681.62 60.03C678.74 46.34 681.91 40.07 697.25 29.02C698.56 28.08 701.25 26.10 703.21 24.62C705.17 23.14 708.17 20.91 709.87 19.65C714.14 16.49 717.43 13.72 721.04 10.26C724.00 7.41 729.23 3.61 732.23 2.12C733.54 1.48 734.37 0.83 734.37 0.48C734.37 -0.30 721.96 0.29 721.44 1.10C721.08 1.64 718.98 3.12 715.30 5.42C712.23 7.35 707.85 10.20 705.58 11.75C698.52 16.56 696.78 17.72 692.38 20.52C674.15 32.16 669.67 39.72 673.81 51.86C675.90 57.99 681.18 65.19 682.02 63.03Z"/>
    <path id="huis" fill="#FFFFFF" d="M500.01 49.25L548.80 90.90L548.80 42.12L581.71 42.12L581.71 119.00L745.21 258.55L674.05 258.55L674.05 509.21L553.62 509.21L553.62 394.03L446.39 394.03L446.39 509.21L325.96 509.21L325.96 258.55L254.81 258.55Z"/>
  </g>
  <g id="woordmerk">
    <path id="verhuisbedrijf" fill="#FFFFFF" d="M123.52 639.95 105.21 553.72H125.95L133.86 599.97Q134.25 602.25 134.69 605.50Q135.14 608.74 135.62 612.02Q136.10 615.30 136.39 617.83H137.33Q137.59 616.01 137.96 613.16Q138.33 610.30 138.83 606.85Q139.32 603.42 139.85 599.98L147.78 553.72H167.92L149.62 639.95ZM172.09 639.95V553.72H223.42V570.39H191.75V587.81H218.78V604.45H191.75V623.27H224.03V639.95ZM230.66 639.95V553.72H262.90Q272.44 553.72 277.89 557.17Q283.34 560.62 285.65 566.50Q287.96 572.37 287.96 579.62Q287.96 587.27 285.84 593.45Q283.70 599.63 278.77 603.36L290.84 639.95H270.21L261.00 609.40H250.32V639.95ZM250.32 593.62H260.01Q264.54 593.62 266.37 590.16Q268.20 586.70 268.20 581.28Q268.20 577.66 267.39 575.13Q266.59 572.59 264.78 571.21Q262.98 569.84 259.73 569.84H250.32ZM295.03 639.95V553.72H314.70V587.81H331.72V553.72H351.31V639.95H331.72V604.60H314.70V639.95ZM388.52 641.45Q379.80 641.45 373.48 638.56Q367.16 635.67 363.76 628.96Q360.36 622.24 360.36 610.95V553.72H380.01V611.98Q380.01 618.24 381.86 621.58Q383.71 624.90 388.39 624.90Q393.17 624.90 395.13 621.58Q397.08 618.24 397.08 611.98V553.72H416.73V610.95Q416.73 622.24 413.33 628.96Q409.92 635.67 403.64 638.56Q397.35 641.45 388.52 641.45ZM425.79 639.95V553.72H445.44V639.95ZM480.38 641.45Q474.49 641.45 469.41 640.27Q464.33 639.09 460.49 636.12Q456.66 633.16 454.48 627.94Q452.31 622.73 452.31 614.61Q452.31 614.18 452.32 613.42Q452.32 612.65 452.40 612.17H471.21Q471.20 612.75 471.20 613.39Q471.20 614.04 471.20 614.64Q471.20 618.68 472.19 620.94Q473.19 623.21 475.09 624.12Q476.99 625.04 479.71 625.04Q481.31 625.04 482.57 624.71Q483.84 624.39 484.86 623.67Q485.86 622.97 486.54 621.91Q487.22 620.87 487.54 619.43Q487.86 617.99 487.86 616.19Q487.86 613.28 486.40 611.30Q484.96 609.33 482.50 607.90Q480.05 606.47 477.00 605.22Q473.95 603.98 470.67 602.58Q467.38 601.20 464.33 599.29Q461.28 597.37 458.84 594.56Q456.38 591.75 454.93 587.76Q453.49 583.77 453.49 578.16Q453.49 571.12 455.64 566.17Q457.79 561.24 461.58 558.15Q465.36 555.05 470.18 553.61Q474.99 552.15 480.32 552.15Q485.82 552.15 490.53 553.45Q495.23 554.74 498.73 557.56Q502.22 560.39 504.18 565.02Q506.15 569.65 506.16 576.32V579.23H487.59V577.64Q487.59 574.76 486.93 572.76Q486.28 570.76 484.77 569.67Q483.26 568.59 480.55 568.59Q478.29 568.59 476.66 569.41Q475.03 570.22 474.22 571.84Q473.41 573.46 473.41 575.94Q473.41 578.97 474.86 581.06Q476.31 583.14 478.79 584.59Q481.27 586.04 484.32 587.28Q487.38 588.52 490.63 589.89Q493.88 591.24 496.93 593.11Q499.98 594.98 502.46 597.73Q504.94 600.47 506.39 604.40Q507.84 608.33 507.84 613.85Q507.84 623.33 504.45 629.45Q501.07 635.55 494.92 638.50Q488.77 641.45 480.38 641.45ZM513.78 639.95V553.72H546.53Q553.59 553.72 558.67 556.16Q563.76 558.62 566.50 563.22Q569.23 567.83 569.23 574.45Q569.23 579.88 567.58 583.91Q565.92 587.95 563.11 590.64Q560.28 593.33 556.65 594.91V595.41Q560.60 596.63 563.81 598.97Q567.02 601.31 568.91 605.34Q570.78 609.38 570.78 615.70Q570.78 623.78 567.42 629.19Q564.05 634.59 557.94 637.27Q551.83 639.95 543.69 639.95ZM533.10 623.22H543.24Q547.20 623.22 549.16 620.71Q551.12 618.21 551.12 613.09Q551.12 610.37 550.28 608.26Q549.44 606.17 547.70 605.00Q545.96 603.84 543.31 603.84H533.10ZM533.10 588.59H542.43Q544.96 588.59 546.62 587.36Q548.28 586.12 549.12 583.88Q549.95 581.65 549.95 578.52Q549.95 574.64 547.98 572.24Q546.01 569.83 542.54 569.83H533.10ZM576.56 639.95V553.72H627.88V570.39H596.21V587.81H623.24V604.45H596.21V623.27H628.48V639.95ZM635.13 639.95V553.72H662.95Q673.84 553.72 680.36 558.25Q686.86 562.79 689.77 572.24Q692.68 581.69 692.68 596.58Q692.68 611.36 689.68 620.98Q686.70 630.60 680.11 635.27Q673.51 639.95 662.58 639.95ZM654.78 623.27H661.33Q664.41 623.27 666.58 622.24Q668.75 621.19 670.09 618.85Q671.42 616.50 672.04 612.62Q672.66 608.75 672.66 603.15V591.90Q672.66 586.24 672.04 582.18Q671.42 578.12 670.11 575.51Q668.80 572.90 666.61 571.64Q664.41 570.39 661.33 570.39H654.78ZM700.25 639.95V553.72H732.48Q742.03 553.72 747.49 557.17Q752.94 560.62 755.24 566.50Q757.54 572.37 757.54 579.62Q757.54 587.27 755.42 593.45Q753.29 599.63 748.36 603.36L760.43 639.95H739.79L730.58 609.40H719.90V639.95ZM719.90 593.62H729.60Q734.12 593.62 735.95 590.16Q737.78 586.70 737.78 581.28Q737.78 577.66 736.98 575.13Q736.17 572.59 734.37 571.21Q732.56 569.84 729.31 569.84H719.90ZM764.63 639.95V553.72H784.28V639.95ZM813.53 641.45Q805.99 641.45 800.39 638.97Q794.80 636.50 791.72 631.09Q788.64 625.68 788.64 617.03V611.53H807.60V615.97Q807.60 620.26 808.91 622.55Q810.22 624.85 813.72 624.85Q817.37 624.85 818.72 622.36Q820.07 619.88 820.07 615.03V553.72H839.68V615.90Q839.68 625.06 836.29 630.72Q832.90 636.37 827.01 638.91Q821.13 641.45 813.53 641.45ZM848.35 639.95V553.72H894.81V570.39H868.00V590.54H890.32V607.34H868.00V639.95Z"/>
    <path id="de-reus" fill="#FFFFFF" d="M129.14 825.27V671.07H178.91Q198.39 671.07 210.02 679.18Q221.67 687.30 226.86 704.20Q232.07 721.09 232.07 747.72Q232.07 774.15 226.72 791.34Q221.37 808.55 209.59 816.90Q197.80 825.27 178.24 825.27ZM164.29 795.46H176.01Q181.51 795.46 185.40 793.59Q189.28 791.73 191.67 787.53Q194.05 783.33 195.16 776.41Q196.28 769.48 196.28 759.48V739.36Q196.28 729.23 195.16 721.97Q194.05 714.71 191.71 710.04Q189.37 705.38 185.44 703.12Q181.51 700.88 176.01 700.88H164.29ZM256.79 825.27V671.07H348.57V700.88H291.94V732.04H340.27V761.80H291.94V795.46H349.66V825.27ZM407.16 825.27V671.07H464.79Q481.87 671.07 491.62 677.24Q501.37 683.42 505.50 693.93Q509.62 704.43 509.62 717.39Q509.62 731.07 505.81 742.12Q502.01 753.17 493.19 759.85L514.77 825.27H477.87L461.39 770.65H442.31V825.27ZM442.31 742.44H459.64Q467.72 742.44 471.00 736.23Q474.28 730.04 474.28 720.36Q474.28 713.89 472.84 709.34Q471.40 704.81 468.17 702.35Q464.94 699.90 459.12 699.90H442.31ZM533.46 825.27V671.07H625.24V700.88H568.60V732.04H616.95V761.80H568.60V795.46H626.33V825.27ZM698.68 827.95Q683.10 827.95 671.79 822.79Q660.49 817.61 654.40 805.62Q648.32 793.61 648.32 773.42V671.07H683.46V775.27Q683.46 786.46 686.77 792.41Q690.09 798.37 698.46 798.37Q707.02 798.37 710.50 792.41Q713.99 786.46 713.99 775.27V671.07H749.13V773.42Q749.13 793.61 743.04 805.62Q736.96 817.61 725.72 822.79Q714.48 827.95 698.68 827.95ZM821.78 827.95Q811.24 827.95 802.15 825.85Q793.06 823.75 786.20 818.43Q779.34 813.12 775.46 803.80Q771.59 794.48 771.59 779.97Q771.59 779.19 771.59 777.83Q771.60 776.46 771.73 775.58H805.39Q805.36 776.64 805.36 777.79Q805.35 778.95 805.35 780.01Q805.35 787.24 807.13 791.29Q808.91 795.34 812.31 796.97Q815.71 798.60 820.56 798.60Q823.43 798.60 825.69 798.02Q827.95 797.44 829.77 796.17Q831.58 794.90 832.79 793.03Q834.01 791.15 834.57 788.58Q835.14 786.00 835.14 782.78Q835.14 777.57 832.54 774.04Q829.95 770.51 825.56 767.95Q821.18 765.40 815.73 763.17Q810.27 760.94 804.41 758.46Q798.53 755.98 793.07 752.55Q787.62 749.13 783.24 744.10Q778.85 739.08 776.26 731.95Q773.67 724.80 773.67 714.77Q773.67 702.20 777.52 693.36Q781.37 684.52 788.14 678.99Q794.91 673.47 803.52 670.87Q812.13 668.27 821.66 668.27Q831.49 668.27 839.90 670.59Q848.32 672.90 854.57 677.96Q860.82 683.01 864.32 691.29Q867.84 699.56 867.86 711.49V716.70H834.65V713.85Q834.65 708.70 833.48 705.12Q832.31 701.55 829.62 699.62Q826.93 697.67 822.07 697.67Q818.01 697.67 815.11 699.13Q812.20 700.59 810.75 703.48Q809.30 706.38 809.30 710.81Q809.30 716.24 811.89 719.96Q814.48 723.69 818.93 726.28Q823.36 728.88 828.81 731.09Q834.26 733.31 840.08 735.74Q845.91 738.17 851.36 741.51Q856.81 744.86 861.25 749.77Q865.69 754.68 868.28 761.70Q870.87 768.72 870.87 778.60Q870.87 795.57 864.82 806.49Q858.76 817.41 847.77 822.68Q836.78 827.95 821.78 827.95Z"/>
  </g>
</svg>
